<?xml version="1.0" encoding="utf-8"?>
<!-- Generator: Adobe Illustrator 24.3.0, SVG Export Plug-In . SVG Version: 6.00 Build 0)  -->
<svg version="1.1" id="Layer_1" xmlns="http://www.w3.org/2000/svg" xmlns:xlink="http://www.w3.org/1999/xlink" x="0px" y="0px"
	 viewBox="0 0 200 200" style="enable-background:new 0 0 200 200;" xml:space="preserve">
<style type="text/css">
	.st0{fill:#DCEDAE;}
	.st1{fill:#B1C178;}
	.st2{opacity:0.1;}
	.st3{fill:#F7F0F7;}
	.st4{fill:#E1D0E2;}
	.st5{fill:#FFFAFF;}
	.st6{fill:url(#SVGID_1_);}
	.st7{opacity:0.1;fill:url(#SVGID_2_);}
	.st8{opacity:0.1;fill:url(#SVGID_3_);}
	.st9{opacity:0.1;fill:url(#SVGID_4_);}
	.st10{opacity:0.1;fill:url(#SVGID_5_);}
	.st11{opacity:0.1;fill:url(#SVGID_6_);}
	.st12{fill:url(#SVGID_7_);}
</style>
<polygon class="st0" points="-152.66,75.61 -106.05,198.7 -53.8,70.32 -136.92,62.52 "/>
<g>
	<polygon class="st1" points="-105.59,197.58 -106.31,198 -106.05,198.7 	"/>
	<path class="st1" d="M-143.17,100.68l6.41,16.93l1.67-0.96l13.82,7.98l-10.53,6.08l7.32,19.32l3.21,1.85l-2.06,1.19l3.51,9.28
		l8.34-4.81l14.02,8.1l-13.34,7.7l-6.22-3.59l5.74,15.17l0.48-0.28l8.48,4.9l3.72-9.15l-2.42-1.39l3.9-2.25l7.32-17.98l-11.9-6.87
		l13.82-7.98l3.34,1.93l8.07-19.82l-11.41,6.59l-13.82-7.98l13.82-7.98l12.33,7.12l3.72-9.15l-6.26-3.62l10.11-5.84l6.01-14.77
		l-25.91,14.96l-13.82-7.98l39.25-22.66l-3.17-5.5l-5.92-0.56l-39.95,23.06l-35.74-20.63l-5.44,4.52l1.76,4.66l29.63,17.11
		l-13.82,7.98L-143.17,100.68z M-97.66,138.26l-13.82,7.98l-13.82-7.98l13.82-7.98L-97.66,138.26z M-111.48,103.02l13.82,7.98
		l-13.82,7.98l-13.82-7.98L-111.48,103.02z"/>
</g>
<path class="st2" d="M-106.05,198.7L-53.8,70.32l-57.68-5.41l-29.17,0.72l-9.25,7.7l-2.18,3.81l2.33,6.14
	c3.1,0.32,9.8,0.84,12.7-0.18c3.83-1.35,8.34-2.6,8.34-2.6s8.01,6.92,21.41,6.09s19.4-5.33,19.4-5.33s0.87,2.82,6.18,3.83
	c5.31,1,11.15,0.11,11.15,0.11l-41.25,98.25L-106.05,198.7z"/>
<path class="st3" d="M-156.78,67.81c0,0-8.91,15.32,3.9,15.32s21.44-8.91,21.44-8.91s0.84,10.86,13.92,10.58s24.79-8.49,24.79-8.49
	s-0.56,11.01,12.81,8.5c13.37-2.51,6.41-12.26,6.41-12.26s5.01,11.7,14.76,10.58c9.75-1.11,6.96-13.09,6.96-13.09
	s35.37-62.1-51.43-65.72C-181.8,1.04-156.78,67.81-156.78,67.81z"/>
<g>
	<path class="st4" d="M-110.96,4.23c15.52,6.82,40.21,14.15,47.33,28.15c8.1,15.94,8.46,33.07,4.62,38.49
		c-1.79,2.52-6.32,8.84-9,9.15c2.35,2.02,5.43,3.55,9.25,3.11c9.75-1.11,6.96-13.09,6.96-13.09s35.37-62.1-51.43-65.72
		C-105.93,4.2-108.5,4.18-110.96,4.23z"/>
</g>
<path class="st5" d="M-103.23,49.75c6.64-3.75,6.11-27.74-1.89-36.24c-5.27-5.6-16.99-6.86-24.38-7.06
	c-33.27,8.15-32.71,36.56-29.83,51.7c2.25,1.22,4.9,2.14,7.98,2.73c12.5,2.37,12.25-2.62,22.24-5.75
	C-119.11,52-109.86,53.5-103.23,49.75z"/>
<g>
	<linearGradient id="SVGID_1_" gradientUnits="userSpaceOnUse" x1="70.2942" y1="87.1061" x2="70.4833" y2="87.1061">
		<stop  offset="0" style="stop-color:#000000;stop-opacity:0"/>
		<stop  offset="0.9801" style="stop-color:#000000;stop-opacity:0.49"/>
		<stop  offset="1" style="stop-color:#000000;stop-opacity:0.5"/>
	</linearGradient>
	<polygon class="st6" points="70.48,87 70.29,87.21 70.48,87 	"/>
	<linearGradient id="SVGID_2_" gradientUnits="userSpaceOnUse" x1="49.6803" y1="149.4926" x2="64.973" y2="149.4926">
		<stop  offset="0" style="stop-color:#000000;stop-opacity:0"/>
		<stop  offset="0.9801" style="stop-color:#000000;stop-opacity:0.49"/>
		<stop  offset="1" style="stop-color:#000000;stop-opacity:0.5"/>
	</linearGradient>
	<polygon class="st7" points="49.68,151.61 64.97,147.38 64.97,147.38 	"/>
	<linearGradient id="SVGID_3_" gradientUnits="userSpaceOnUse" x1="70.2942" y1="87.1061" x2="70.4828" y2="87.1061">
		<stop  offset="0" style="stop-color:#000000;stop-opacity:0"/>
		<stop  offset="0.9801" style="stop-color:#000000;stop-opacity:0.49"/>
		<stop  offset="1" style="stop-color:#000000;stop-opacity:0.5"/>
	</linearGradient>
	<polygon class="st8" points="70.48,87 70.29,87.21 70.29,87.21 70.48,87 	"/>
	<linearGradient id="SVGID_4_" gradientUnits="userSpaceOnUse" x1="101.9331" y1="135.6163" x2="113.1211" y2="135.6163">
		<stop  offset="0" style="stop-color:#000000;stop-opacity:0"/>
		<stop  offset="0.9801" style="stop-color:#000000;stop-opacity:0.49"/>
		<stop  offset="1" style="stop-color:#000000;stop-opacity:0.5"/>
	</linearGradient>
	<polygon class="st9" points="101.93,137.16 101.93,137.16 113.12,134.07 113.12,134.07 	"/>
	<linearGradient id="SVGID_5_" gradientUnits="userSpaceOnUse" x1="84.205" y1="141.1101" x2="91.0987" y2="141.1101">
		<stop  offset="0" style="stop-color:#000000;stop-opacity:0"/>
		<stop  offset="0.9801" style="stop-color:#000000;stop-opacity:0.49"/>
		<stop  offset="1" style="stop-color:#000000;stop-opacity:0.5"/>
	</linearGradient>
	<polygon class="st10" points="88.44,140.89 84.2,142.06 91.1,140.16 91.1,140.16 	"/>
	<linearGradient id="SVGID_6_" gradientUnits="userSpaceOnUse" x1="130.611" y1="128.0508" x2="139.1823" y2="128.0508">
		<stop  offset="0" style="stop-color:#000000;stop-opacity:0"/>
		<stop  offset="0.9801" style="stop-color:#000000;stop-opacity:0.49"/>
		<stop  offset="1" style="stop-color:#000000;stop-opacity:0.5"/>
	</linearGradient>
	<polygon class="st11" points="130.61,129.24 130.61,129.24 139.18,126.87 139.18,126.87 	"/>
	<linearGradient id="SVGID_7_" gradientUnits="userSpaceOnUse" x1="177.1115" y1="66.0745" x2="8.8201" y2="166.5576">
		<stop  offset="0" style="stop-color:#000000;stop-opacity:0"/>
		<stop  offset="0.9801" style="stop-color:#000000;stop-opacity:0.49"/>
		<stop  offset="1" style="stop-color:#000000;stop-opacity:0.5"/>
	</linearGradient>
	<path class="st12" d="M186.47,112.09c0.42-0.26,0.83-0.53,1.23-0.8c0.81-0.54,1.59-1.1,2.34-1.68c1.87-1.45,3.52-3.02,4.85-4.71
		c0.53-0.68,1.02-1.38,1.44-2.1c0.85-1.44,1.47-2.96,1.8-4.56c0.16-0.8,0.26-1.62,0.27-2.47c0.04-2.11-0.42-4.35-1.47-6.73
		c-1.48-3.33-4.13-6.92-8.24-10.8c-0.59-0.55-1.21-1.11-1.86-1.68c-3.24-2.82-7.26-5.79-12.15-8.9c0,0,0,0,0,0
		c-0.97-0.62-1.93-1.2-2.89-1.77c-0.03-0.02-0.07-0.04-0.1-0.06c-6.51-3.86-12.78-6.65-18.78-8.59c0,0,0,0,0,0c0,0,0,0,0,0
		c-19.21-6.2-35.63-3.58-48.11,1.45c0,0-0.01,0-0.01,0.01c-0.64,0.26-1.27,0.52-1.89,0.79c-0.03,0.01-0.05,0.02-0.08,0.03
		c-1.88,0.82-3.66,1.69-5.34,2.58c-0.04,0.02-0.07,0.04-0.11,0.06c-0.52,0.28-1.02,0.55-1.52,0.84c-0.05,0.03-0.09,0.05-0.14,0.08
		c-1.59,0.9-3.08,1.82-4.47,2.73c-0.04,0.03-0.09,0.06-0.13,0.09c-0.42,0.28-0.83,0.55-1.22,0.82c-0.04,0.03-0.09,0.06-0.13,0.09
		c-1.32,0.91-2.53,1.8-3.62,2.65c-0.01,0.01-0.02,0.02-0.04,0.03c-4.92,3.83-7.59,6.83-7.59,6.83s-20.16,3.84-10.45,9.45
		c0.78,0.45,1.6,0.85,2.44,1.22l0,0c0,0,0,0,0,0l-0.19,0.21L59.94,99.03l-9.85,11.24l0,0l-7.7,8.79l-4.56,5.21L2.39,164.68
		l12.72-3.52l8.97-2.48l4.32-1.19l21.28-5.88l0,0l15.29-4.23l0,0l0,0l19.23-5.32l4.23-1.17l2.66-0.74l0,0l10.83-2.99l0,0l11.19-3.09
		l0,0l17.49-4.83h0l8.57-2.37l0,0c0.07,0.03,0.14,0.07,0.22,0.11c2.87,1.27,5.75,1.25,8.29,0.67c0.46-0.11,0.91-0.23,1.35-0.37
		c0.87-0.28,1.69-0.61,2.44-0.96c2.82-1.32,4.65-2.91,4.65-2.91s0.18-0.03,0.51-0.11c0.22-0.05,0.51-0.11,0.87-0.19
		c3.36-0.75,12.32-2.96,21-6.84c0.91-0.41,1.82-0.83,2.73-1.28c0.9-0.45,1.79-0.91,2.67-1.39
		C184.78,113.12,185.63,112.62,186.47,112.09z"/>
</g>
</svg>
