<svg id="Layer_1" data-name="Layer 1" xmlns="http://www.w3.org/2000/svg" viewBox="0 0 100 100"><defs><style>.cls-1{fill:#eef9f1;}.cls-2{fill:#7e7e7e;}.cls-3{font-size:10.67px;fill:#fff;font-family:Raleway-Bold, Raleway;font-weight:700;}.cls-4{letter-spacing:-0.01em;}.cls-5{letter-spacing:0em;}.cls-6{letter-spacing:-0.03em;}.cls-7{letter-spacing:0em;}.cls-8{letter-spacing:-0.03em;}.cls-9{letter-spacing:-0.01em;}</style></defs><path class="cls-1" d="M91.88,35.87a6.71,6.71,0,0,0-3-1.48,4.75,4.75,0,0,1-1.43-.49,4,4,0,0,1-1.17-1.5c-5-8.87-14.2-15.65-24.37-16.29A30.66,30.66,0,0,0,43.51,21.3a44.76,44.76,0,0,0-13.24,14A3.21,3.21,0,0,1,29,36.7a4.85,4.85,0,0,1-1.48.19,3.46,3.46,0,0,0-2.8,1.73A2.38,2.38,0,0,0,27,42.12H72.9c3.27,0,6.54,0,9.81,0,2.77,0,6.29.76,8.67-1.05a3.62,3.62,0,0,0,1.49-3.49A3.14,3.14,0,0,0,91.88,35.87Z"/><path class="cls-2" d="M88.64,56.78c0-4.67,0-9.33.11-14,0-.81-.15-1.15-1.09-1.15q-31.22,0-62.43,0c-5.67,0-11.34,0-17,0-.94,0-1.18.26-1.16,1.17.06,3.22,0,6.45,0,9.67,0,1.61-.21,1.44,1.39,1.44,6,0,12.07,0,18.11,0,1,0,1.22.27,1.25,1.23a22.28,22.28,0,0,0,.48,4.07A30.78,30.78,0,0,0,56.5,83.86,23.29,23.29,0,0,0,63,83.51a33,33,0,0,0,9.12-3q13.9-7.44,16.39-23A.61.61,0,0,1,88.64,56.78Z"/><text class="cls-3" transform="translate(34.99 54.05)"><tspan class="cls-4">H</tspan><tspan class="cls-5" x="7.88" y="0">e</tspan><tspan class="cls-6" x="14.27" y="0">r</tspan><tspan class="cls-7" x="18.13" y="0">e</tspan><tspan class="cls-8" x="24.52" y="0"> </tspan><tspan x="26.78" y="0">The</tspan><tspan x="7.01" y="12.81">S</tspan><tspan class="cls-9" x="13.55" y="12.81">c</tspan><tspan x="19.52" y="12.81">oop</tspan></text></svg>